<svg xmlns="http://www.w3.org/2000/svg" enable-background="new 0 0 68 68" viewBox="0 0 68 68"><path fill="#2d77fc" d="M46.5676117,64.5947495c-0.7924194-3.2459717-1.4702415-9.5218124-1.41119-10.4273987c0.1376114-2.1089935-17.2438049,0.303112-17.2438049,0.303112s-1.0954399,6.0597916-1.9756641,10.1242867H46.5676117z"/><path fill="#125ac4" d="M29.2996635,60.0337791l-0.1601486-0.1979446c1.1638088-0.9407463,1.3833904-2.6964073,0.489397-3.913929l0.2054081-0.1506996C30.8073921,57.096653,30.5676689,59.0089798,29.2996635,60.0337791z"/><path fill="#15144f" d="M47.7453079,23.5440197c0.5447044-1.7120323,0.3349724-3.6514835-0.5629959-5.206089c-0.8563232-1.4825191-2.3439674-2.7588463-2.3559647-4.472805c-0.0063972-0.9142056,0.4281197-1.7704401,0.9106178-2.5456152c0.482502-0.7751751,0.4917412-0.6109161,0.7606506-1.4843254c0.2689133-0.8734093,0.2910652-2.0304785-0.4437752-2.5709267c-1.7512016-1.2879481-4.5867233-2.4210529-5.7481689-3.1960797c-1.1614418-0.7750266-2.7954636-1.221215-3.8935432-0.3580029c-1.4923897,1.1731842-1.3729477,2.9688752-3.2089806,3.453975c-9.1605511,2.4203286-5.5855446,8.1514454-4.2239532,9.958334c2.6624832,3.533226-3.5352421,5.9457893-3.744133,7.632822c-0.2119102,1.7114353,1.1752663,3.2931919,2.7859707,3.8902187s3.3878384,0.4441357,5.0971966,0.2830811c2.5417099-0.2394772,5.0834236-0.4789543,7.6251335-0.7184315c1.0323753-0.0972691,2.327713-0.0083084,3.2973289-0.4091892c0.6682587-0.276289,1.3444786-0.9448299,1.8720703-1.4237156C46.7539024,25.6137753,47.3997726,24.6300602,47.7453079,23.5440197z"/><path fill="#02b07e" d="M42.3378868,23.4393768c0,0,2.5959587-0.000536,4.6375923,1.9626713s3.1746368,4.2089272,3.1746368,4.2089272l2.6744766-7.0208359l3.3488007,2.4481239c0,0-1.6419754,15.2722569-6.6657066,16.3687687c-5.2462807,1.1450882-7.0200768-4.3600273-7.0200768-4.3600273L42.3378868,23.4393768z"/><path fill="#03c88b" d="M27.3172112,55.2913513c0.3438606,1.9944,17.7166824,2.4669418,18.9711037,0.5550842c0.6354065-0.9710732-1.7202682-12.125351-0.9087029-16.7303429c0.847229-4.8030472,3.7862625-11.1069069-0.4181404-14.8438053c-0.2108917-0.187439-0.5914803-0.3740826-1.1196327-0.5309029c-0.2310982-0.0687714-0.489666-0.1320381-0.7730141-0.1898632c-2.5611-0.5391636-7.0395584-0.6574326-10.6019516,0.0715942c-0.2420464,0.0522499-0.4814072,0.1045017-0.7151928,0.1622601c-1.9036617,0.4703903-3.4661503,1.2103653-4.2006168,2.2915134c-1.7606125,2.5858116-0.195303,8.7175636,2.0851974,15.5205154C31.0859203,45.9245529,26.7780457,52.1636238,27.3172112,55.2913513z"/><path fill="#02b07e" d="M28.6110153,25.1266251c0.9713898-0.2118187,2.6882172,1.0325241,3.2597828,4.0332375s0.3782482,10.6556892,0.3782482,10.6556892l9.3146667-2.316555l0.3000145,4.5490913c0,0-10.2602177,8.7001381-14.3564301,6.842556C23.4110851,47.0330582,23.1718922,26.3126564,28.6110153,25.1266251z"/><path fill="#f9b29c" d="M32.4668732,23.6231155c0,0,0.0963097,0.8637505,0.5639458,1.9091034c0.739975,1.6642361,2.4207993,3.7934914,6.1455193,3.6173954c5.4027214-0.2530594,4.2858429-4.5691948,3.9887924-5.4797554c-0.0302887-0.0413036-0.0605125-0.0797863-0.0963058-0.1183376c-0.6024323-0.1265297-1.3121834-0.2310314-2.090641-0.3053112C38.4500656,23.0041637,35.1902962,23.0646095,32.4668732,23.6231155z"/><path fill="#f9b29c" d="M41.3989906,23.2917728l-0.3063583,1.5894356l-4.0570107,1.2528877c0,0-1.9231796-0.2051735-3.4359398-0.6018314c-0.4677887-1.0477142-0.5635643-1.9094887-0.5635643-1.9094887c0.038269-0.0136909,0.0793457-0.0300541,0.1148758-0.0437469c1.6058655-0.6538601,2.6098328-5.8625736,2.6207886-5.9008446l0.021904,0.0109539l4.2320633,2.3909664c0.0082169,0.3966579,0.041008,0.7714767,0.1094017,1.1161728c0.0327911,0.1668377,0.0711288,0.3282661,0.1203537,0.4814796C40.4716301,22.3753643,40.8464508,22.925169,41.3989906,23.2917728z"/><path fill="#ed8768" d="M40.2555046,21.6777573c-1.819191-0.0766068-3.5207634-1.6578274-4.4618187-3.9886189l4.2320633,2.3909664c0.0082169,0.3966579,0.041008,0.7714767,0.1094017,1.1161728C40.167942,21.3631153,40.2062798,21.5245438,40.2555046,21.6777573z"/><ellipse cx="38.604" cy="13.589" fill="#f9b29c" rx="4.861" ry="7.319" transform="rotate(-6.727 38.604 13.589)"/><ellipse cx="39.357" cy="13.972" fill="#f9b29c" rx="4.861" ry="7.319" transform="rotate(-6.727 39.357 13.972)"/><path fill="#15144f" d="M38.666954,5.0615168c-0.7807426-0.4216723-2.5234642,0.2183189-3.2667427,0.7029924c-0.6530762,0.4258585-0.980629,1.2467208-0.9440498,2.0255213c0.0883102,1.88029,1.9891663,3.6086969,3.8292809,4.2688284c1.1615219,0.4166908,2.4289398,0.5163774,3.6493988,0.3340635c0.671772-0.1003504,1.340107-0.2886925,1.9175873-0.6462746s1.0595398-0.8974247,1.2574501-1.5471783c0.1023102-0.3358946,0.2227287-1.4802656-0.2235489-1.669095"/><path fill="#f9b29c" d="M41.4989357,37.4999161c0,0,1.7495956-3.2873039,2.6931343-2.407032s-0.4951744,1.5295143-0.4951744,1.5295143"/><path fill="#29275c" d="M42.7994461,42.8879128h5.9974709c0.2145424,0,0.4007721-0.1478882,0.4493675-0.3568535l1.962471-8.4386292c0.0672798-0.2892952-0.1523514-0.5658607-0.4493637-0.5658607h-5.9974747c-0.2145424,0-0.4007683,0.1478882-0.4493675,0.3568535l-1.962471,8.4386292C42.2828026,42.6113472,42.50243,42.8879128,42.7994461,42.8879128z"/><path fill="#15144f" d="M35.754158,9.182621c-0.1380424,0.8623905-0.2766571,1.7273808-0.5198936,2.5661936s-0.5952797,1.6554184-1.1257629,2.3492203c-0.1878128,0.2456379-0.412796,0.4850311-0.7090988,0.5734415c-0.4607239,0.1374674-0.9685364-0.1483431-1.2175522-0.5596247c-0.2490139-0.4112825-0.2886143-0.9153461-0.2682629-1.3957081c0.0664368-1.5681829,0.7128963-3.0873041,1.7090893-4.3002386c0.1541824-0.187727,0.3189812-0.3708086,0.5210915-0.5055876c0.6388435-0.4260206,1.2736168-0.1058826,1.5110435,0.5588741c0.1313133,0.3676548,0.1229057,0.7683821,0.1129189,1.1586552"/><path fill="#f9b29c" d="M43.6968956,36.6223984c0,0,6.1537781-0.2228394,5.119442,3.3230972c-1.0315857,3.5486259-6.95261,2.1025925-6.95261,2.1025925l-0.3647919-4.548172"/><path fill="#15144f" d="M40.4324417 15.7834311c-.5684776-.6980362-.7733879-1.6711102-.5346565-2.5392418.018898-.0678883.0880318-.1069307.1566658-.0890265.0676384.018651.1076775.0887775.0890274.1566668-.2173462.7900467-.030838 1.6755867.486412 2.310956.0445137.0544605.0363045.1345348-.0184021.1790476C40.5558929 15.8468933 40.4758339 15.8371363 40.4324417 15.7834311zM37.3764458 15.1517916c-.0726128-.2352486-.1546745-.5018301-.1206055-.7778625.0781059-.6360064.7401657-.8933649 1.1896706-.3874388.149704.1686029.234005.3777409.3083572.5622597.0263596.0651531-.0052223.1392584-.0706215.1656189-.0641594.0258617-.1392593-.0052223-.1656189-.0706244-.0698814-.1733284-.1419945-.3526249-.2626038-.4881535-.3001366-.3367567-.6942482-.1747561-.7465286.2491741-.0273552.2223177.0462532.4612961.1111565.6719255.0208893.0673914-.0169067.1385136-.084053.1591539C37.4717712 15.2562695 37.3976326 15.2213583 37.3764458 15.1517916zM41.2090569 14.3818874c-.0656509 0-.1216011-.0507307-.1265755-.1176243-.0141754-.1832752-.0318298-.4113121.0467529-.6199522.0815659-.2161007.3016434-.424243.5617599-.3941536.1569138.015667.2812538.1079264.3924141.2054071.2205734.193223.4200134.4110641.5928459.6475554.0415268.0566988.0290947.1362753-.0276031.177804-.0566978.0415297-.1365242.0290956-.1778069-.0276031-.1618881-.2213221-.3488922-.4254866-.555294-.6062746-.0793266-.0693808-.1643753-.1350317-.2501678-.1437349-.1300583-.0104446-.2516632.1089201-.2979164.2310209-.0586891.1554232-.0440178.3439207-.0313339.5105343.0054703.0701265-.0470009.1313009-.1171265.1365232C41.2157745 14.3818874 41.2125397 14.3818874 41.2090569 14.3818874zM38.890892 18.7717838c-.0527229-.0465031-.0579414-.1270733-.0116882-.1797943.0469971-.0529671.1273232-.0579414.1797943-.0116863.4279709.3762474 1.0752792.4993439 1.6116753.305624.0666428-.0226307.1390114.0106926.1631317.0765915.0238724.0661488-.0104446.1392593-.0765915.1631336C40.1208229 19.3553486 39.3896065 19.210062 38.890892 18.7717838z"/><path fill="#feb630" d="M64.7336273,16.6142864c-3.5401382,0.0190449-5.7484932,0.6565762-8.7189789,1.559864c-0.7471466-1.1586838-1.4945984-2.3242493-2.2420502-3.4898148c2.0671005-2.3236465,3.5654182-4.0596123,5.0628624-7.2674179C60.7967415,10.4783497,62.7651672,13.546361,64.7336273,16.6142864z"/><path fill="#f9b29c" d="M54.6155167,21.3548012c0.2145386-0.3974819,2.5474548-4.5935783,3.7195778-1.4814968c1.2308464,3.2633762-2.2290382,5.164959-2.2290382,5.164959"/><path fill="#feb630" d="M55.6952667,19.0995522l0.3590622,0.5556335l2.199707,3.4304943c0.1535492,0.2376099,0.0851707,0.5557785-0.1564674,0.7119312l-0.9448357,0.6048565c-0.2415886,0.1561203-0.559761,0.0877438-0.7159119-0.1538963l-2.1997108-3.4304924l-0.3590584-0.5556355L55.6952667,19.0995522z"/><path fill="#29265d" d="M60.0129013,6.685504l5.8789063,9.1619062c0.204834,0.3192215,0.1108093,0.7499924-0.2143326,0.9586258c-0.3195038,0.2050133-0.750267,0.1109886-0.955101-0.2082348L58.8434639,7.435895c-0.2087669-0.3253508-0.1109886-0.7502708,0.2085152-0.9552846C59.3771172,6.2719774,59.8041344,6.3601532,60.0129013,6.685504z"/><path fill="#feb630" d="M64.3138046,10.3939705c0.4780807,0.7450657,0.2602386,1.743824-0.4924355,2.2267923L62.079586,9.9063015C62.8322639,9.4233322,63.8309555,9.6414795,64.3138046,10.3939705z"/><path fill="#29265d" d="M53.7426529,14.635438l2.2987595,3.5824766c0.1647987,0.2568264,0.0834999,0.6070747-0.1731873,0.7717819l-2.2477188,1.4422913c-0.2623978,0.1683712-0.6089554,0.0926666-0.7737541-0.1641598l-2.2987633-3.5824776c-0.1683731-0.2623978-0.0927811-0.6089802,0.1696167-0.7773523l2.2477188-1.4422903C53.2220116,14.3009996,53.5742798,14.3730402,53.7426529,14.635438z"/><path fill="#feb630" d="M50.7565765,17.0104237l1.8778343,2.9264832c-0.8101044,0.5198174-1.8813858,0.2811356-2.3974075-0.5230484C49.7172318,18.6038246,49.946476,17.530241,50.7565765,17.0104237z"/><path fill="#f9b29c" d="M56.1060562,25.0382633l-3.2814636-2.4481239c0,0,0.9914436-3.2385387,1.7525215-2.8975182c0.6956062,0.3094006,0.1400185,1.4634666,0.0384026,1.6621799"/><g><path fill="#96d5ff" d="M3.3179772,49.3589668v14.5190773c0,0.3958282,0.3208814,0.7167053,0.7167089,0.7167053h18.0486221c0.3958263,0,0.7167091-0.3208771,0.7167091-0.7167053V49.3589668H3.3179772z"/><rect width="2.486" height="12.79" x="11.816" y="51.805" fill="#f24e66"/><rect width="19.482" height="4.047" x="3.318" y="48.458" opacity=".15"/><path fill="#d63554" d="M17.6200485,43.0916901c-0.5510712-0.1594467-1.1453247-0.0941467-1.703475,0.2392578c-0.0072565,0.0070801-0.0145121,0.0145111-0.0145121,0.0145111c-1.3651342,0.7896042-1.6235704,2.5946159-1.7758551,4.2910767c-0.8012362,0.1999016-0.9189253,0.2014503-1.0655127,0.231823c0,0,0-3.5009193,1.0074682-4.6896019c0.2320023-0.2755356,0.4783392-0.4857712,0.7321091-0.6307068c0,0,0.0072556-0.0072556,0.0145111-0.0145111c0.9941835-0.5777969,2.1743879-0.2268181,2.7617331,0.5073624C17.5910263,43.0554123,17.6055374,43.077179,17.6200485,43.0916901z"/><path fill="#f24e66" d="M18.1681652,47.8683586h-5.110074c2.1074924-0.5077858,5.110074-1.0088844,5.110074-3.3777504c0-1.5076065-1.8099194-2.8556061-3.3559856-1.9570694c0.2174911-0.1884689,2.4163151-2.2363968,5.0667171-1.2033691C22.8527851,42.4892807,22.1548576,47.2958755,18.1681652,47.8683586z"/><path fill="#d63554" d="M8.501338,43.0916901c0.5510731-0.1594467,1.1453247-0.0941467,1.703476,0.2392578c0.0072556,0.0070801,0.0145121,0.0145111,0.0145121,0.0145111c1.3651342,0.7896042,1.6235704,2.5946159,1.7758551,4.2910767c0.8012362,0.1999016,0.9189253,0.2014503,1.0655127,0.231823c0,0,0-3.5009193-1.0074682-4.6896019c-0.2320023-0.2755356-0.4783392-0.4857712-0.7321091-0.6307068c0,0-0.0072556-0.0072556-0.0145111-0.0145111c-0.9941835-0.5777969-2.1743889-0.2268181-2.7617331,0.5073624C8.5303612,43.0554123,8.5158501,43.077179,8.501338,43.0916901z"/><path fill="#f24e66" d="M7.9480171,47.8683586h5.110074c-1.1291494-0.2494659-2.2809677-0.4792671-3.3922644-1.0219765c-3.5196929-1.6976318-0.8732347-5.772419,1.638176-4.3128433c-0.2174911-0.1884689-2.416316-2.2363968-5.0667176-1.2033691C3.2633965,42.4892807,3.961324,47.2958755,7.9480171,47.8683586z"/><path fill="#f24e66" d="M14.892662,47.8669548c0.1047258-1.3306274-0.823245-2.2875557-1.8319302-2.2875557c-1.0076036,0-1.9369946,0.9545364-1.8320799,2.2875557H14.892662z"/><path fill="#96d5ff" d="M24.114399,48.4675484v2.8488884c0,0.3293648-0.2662296,0.5991898-0.5991879,0.5991898H2.5991893C2.2698233,51.9156265,2,51.6458015,2,51.3164368v-2.8488884c0-0.3328743,0.2698233-0.5991898,0.5991893-0.5991898h20.9160213C23.8481693,47.8683586,24.114399,48.1346741,24.114399,48.4675484z"/><rect width="2.607" height="4.047" x="11.755" y="47.868" fill="#f24e66"/></g><g><path fill="#faa763" d="M34.3780708,50.770359v2.0347633c0,0.2642746-0.2165604,0.4808578-0.480854,0.4808578H16.5299473c-0.2642727,0-0.4808559-0.2165833-0.4808559-0.4808578V50.770359c0-0.2662849,0.2165833-0.4808807,0.4808559-0.4808807h17.3672695C34.1615105,50.2894783,34.3780708,50.5040741,34.3780708,50.770359z"/><path fill="#ffd5a9" d="M33.2077065,53.2859802v10.5744019c0,0.4967728-0.4033813,0.9001541-0.9001503,0.9001541H18.1196079c-0.496769,0-0.9001503-0.4033813-0.9001503-0.9001541V53.2859802H33.2077065z"/><rect width="15.988" height=".823" x="17.219" y="53.286" opacity=".1"/><path fill="#ffd5a9" d="M27.5165939,51.5651894v0.4451027c0,0.1470413-0.119194,0.2662621-0.2662601,0.2662621h-4.0735035c-0.1470413,0-0.2662621-0.1192207-0.2662621-0.2662621v-0.4451027c0-0.1470413,0.1192207-0.2662849,0.2662621-0.2662849h4.0735035C27.3973999,51.2989044,27.5165939,51.418148,27.5165939,51.5651894z"/><path fill="#faa763" d="M25.4528408,56.1518669l0.7703495,1.5608978c0.0388641,0.0787506,0.1139889,0.1333313,0.2008915,0.1459579l1.7225533,0.2503014c0.2188435,0.0317993,0.3062267,0.3007393,0.147871,0.4550972l-1.2464523,1.2149925c-0.0628834,0.0612946-0.0915775,0.1496086-0.0767326,0.2361603l0.2942467,1.7155952c0.0373821,0.2179604-0.1913891,0.3841705-0.3871288,0.2812653l-1.540699-0.8099937c-0.0777283-0.040863-0.1705875-0.040863-0.2483158,0l-1.540699,0.8099937c-0.1957397,0.1029053-0.4245129-0.0633049-0.3871288-0.2812653l0.2942467-1.7155952c0.0148449-0.0865517-0.0138512-0.1748657-0.0767345-0.2361603l-1.2464504-1.2149925c-0.1583576-0.1543579-0.0709743-0.4232979,0.1478691-0.4550972l1.7225533-0.2503014c0.0869045-0.0126266,0.1620293-0.0672073,0.2008934-0.1459579l0.7703495-1.5608978C25.0721931,55.9535637,25.3549709,55.9535637,25.4528408,56.1518669z"/></g></svg>